<svg xmlns="http://www.w3.org/2000/svg" version="1.1" xmlns:xlink="http://www.w3.org/1999/xlink" xmlns:svgjs="http://svgjs.com/svgjs" width="512" height="512"><svg viewBox="0 0 512 512" xmlns="http://www.w3.org/2000/svg"><path d="m485.03385 175.67448a18.15312 18.15312 0 0 0 -22.987-1.6862l-114.03256 78.901a16.95168 16.95168 0 0 1 -22.30338-25.22l160.91409-179.70964a15.99826 15.99826 0 0 0 -22.58594-22.58594l-179.70963 160.91406a16.95077 16.95077 0 0 1 -23.27344-.66016l-.18229-.18229a16.95037 16.95037 0 0 1 -2.11719-21.38932l79.6862-116.64583a16.68991 16.68991 0 0 0 -25.36071-21.42448l-254.25778 246.17057a127.99968 127.99968 0 1 0 181.01823 181.01953l245.76432-251.78385a18.15207 18.15207 0 0 0 -.57292-25.71745z" fill="#ffbe00"></path><ellipse cx="170.66667" cy="277.33333" fill="#ffa300" rx="73.64503" ry="52.60359" transform="matrix(.70710678 -.70710678 .70710678 .70710678 -146.11717 201.90861)"></ellipse><g fill="#f98b00"><path d="m149.33333 490.66667a128 128 0 0 1 -90.51041-218.51042 21.33105 21.33105 0 0 1 30.16666 30.16667 85.33333 85.33333 0 0 0 60.34375 145.67708 84.40751 84.40751 0 0 0 60.14584-24.8125l222.44791-227.89583a21.34 21.34 0 1 1 30.54167 29.8125l-222.625 228.07291a126.97766 126.97766 0 0 1 -90.51042 37.48959z"></path><path d="m311.28125 287.35417a21.23767 21.23767 0 0 1 -15.09375-6.26042 59.70815 59.70815 0 0 1 -2.30208-81.85417l96.375-107.625a21.33417 21.33417 0 1 1 31.79166 28.45834l-96.34375 107.59375a17.00046 17.00046 0 0 0 .66667 23.28125 21.33334 21.33334 0 0 1 -15.09375 36.40625z"></path><path d="m245.79167 221.86458a21.2642 21.2642 0 0 1 -15.08334-6.25 59.88657 59.88657 0 0 1 -7.30208-75.4375l53.94792-78.98958a21.3313 21.3313 0 0 1 35.22916 24.0625l-53.82291 78.80208a17.075 17.075 0 0 0 2.11458 21.39584 21.33333 21.33333 0 0 1 -15.08333 36.41666z"></path></g><circle cx="149.33333" cy="362.66667" fill="#adb9ca" r="106.66667"></circle><circle cx="128" cy="362.66667" fill="#cdd4df" r="85.33333"></circle><ellipse cx="96" cy="330.66667" fill="#e5e8ef" rx="40.46829" ry="20.23414" transform="matrix(.70710678 -.70710678 .70710678 .70710678 -205.69889 164.73228)"></ellipse><ellipse cx="149.33333" cy="277.33333" fill="#7d8fac" rx="42.66667" ry="21.33333"></ellipse><ellipse cx="85.33333" cy="362.66667" fill="#5e7599" rx="26.97886" ry="13.48943" transform="matrix(.70710678 -.70710678 .70710678 .70710678 -231.4505 166.56239)"></ellipse><ellipse cx="117.33333" cy="437.33333" fill="#5e7599" rx="20.23414" ry="40.46829" transform="matrix(.70710678 -.70710678 .70710678 .70710678 -274.87523 211.05916)"></ellipse><ellipse cx="234.66667" cy="373.33333" fill="#7d8fac" rx="21.33333" ry="32"></ellipse></svg><style>@media (prefers-color-scheme: light) { :root { filter: none; } }
</style></svg>